<?xml version="1.0" encoding="UTF-8" standalone="no"?>
<!-- Created with Inkscape (http://www.inkscape.org/) -->

<svg
   width="160.36542mm"
   height="72.75428mm"
   viewBox="0 0 160.36542 72.75428"
   version="1.1"
   id="svg12966"
   sodipodi:docname="constraint-projection.svg"
   inkscape:version="1.2 (dc2aeda, 2022-05-15)"
   inkscape:export-filename="constraint-projection.png"
   inkscape:export-xdpi="96"
   inkscape:export-ydpi="96"
   xmlns:inkscape="http://www.inkscape.org/namespaces/inkscape"
   xmlns:sodipodi="http://sodipodi.sourceforge.net/DTD/sodipodi-0.dtd"
   xmlns="http://www.w3.org/2000/svg"
   xmlns:svg="http://www.w3.org/2000/svg"
   xmlns:ns113="http://www.iki.fi/pav/software/textext/">
  <sodipodi:namedview
     id="namedview12968"
     pagecolor="#ffffff"
     bordercolor="#000000"
     borderopacity="0.25"
     inkscape:showpageshadow="2"
     inkscape:pageopacity="0.0"
     inkscape:pagecheckerboard="0"
     inkscape:deskcolor="#d1d1d1"
     inkscape:document-units="mm"
     showgrid="false"
     inkscape:zoom="1.1789508"
     inkscape:cx="334.19545"
     inkscape:cy="139.53084"
     inkscape:window-width="1440"
     inkscape:window-height="847"
     inkscape:window-x="67"
     inkscape:window-y="25"
     inkscape:window-maximized="0"
     inkscape:current-layer="layer1" />
  <defs
     id="defs12963">
    <marker
       style="overflow:visible"
       id="Arrow2"
       refX="0"
       refY="0"
       orient="auto-start-reverse"
       inkscape:stockid="Arrow2"
       markerWidth="7.6999998"
       markerHeight="5.5999999"
       viewBox="0 0 7.7 5.6"
       inkscape:isstock="true"
       inkscape:collect="always"
       preserveAspectRatio="xMidYMid">
      <path
         transform="scale(0.7)"
         d="M -2,-4 9,0 -2,4 c 2,-2.33 2,-5.66 0,-8 z"
         style="fill:context-stroke;fill-rule:evenodd;stroke:none"
         id="arrow2L" />
    </marker>
    <inkscape:path-effect
       effect="spiro"
       id="path-effect14445"
       is_visible="true"
       lpeversion="1" />
    <inkscape:path-effect
       effect="spiro"
       id="path-effect13143"
       is_visible="true"
       lpeversion="1" />
    <inkscape:path-effect
       effect="spiro"
       id="path-effect13143-4"
       is_visible="true"
       lpeversion="1" />
    <inkscape:path-effect
       effect="spiro"
       id="path-effect13143-4-1"
       is_visible="true"
       lpeversion="1" />
    <inkscape:path-effect
       effect="spiro"
       id="path-effect14445-7"
       is_visible="true"
       lpeversion="1" />
  </defs>
  <g
     inkscape:label="Layer 1"
     inkscape:groupmode="layer"
     id="layer1"
     transform="translate(5.6764933,-155.34855)">
    <path
       style="fill:#cccccc;fill-opacity:0.85098;stroke:none;stroke-width:1.49311;stroke-linecap:round;stroke-linejoin:round;stroke-dasharray:none;stop-color:#000000"
       d="m 100.57369,177.87026 c 17.82357,0.27885 35.63512,1.32447 53.36889,3.133 -8.44992,3.8853 -16.29421,9.08442 -23.16442,15.35314 -9.44292,8.61618 -17.02608,19.26041 -22.08495,30.99988 -17.684286,-1.73022 -35.435628,-2.77494 -53.200785,-3.13105 -20.148991,-0.40389 -40.315721,0.0782 -60.4224009,1.44434 4.68551369,-12.02326 12.2712924,-22.90471 21.9316129,-31.45989 6.781144,-6.00538 14.569956,-10.87014 22.941641,-14.32895 20.1614,-1.65569 40.403617,-2.32691 60.630412,-2.01047 z"
       id="path13141-7"
       inkscape:path-effect="#path-effect13143-4"
       inkscape:original-d="m 100.57369,177.87026 c 27.39594,-3.2716 32.91687,-0.40853 53.36889,3.133 -7.30732,5.16232 -15.95399,4.99796 -23.16442,15.35314 -7.21043,10.35519 -14.59573,20.47938 -22.08495,30.99988 -20.283906,-3.53958 -25.804846,-6.40266 -53.200785,-3.13105 -27.395924,3.27158 -32.916075,-1.83965 -60.4224009,1.44434 7.335881,-10.98051 14.721178,-21.10471 21.9316129,-31.45989 7.21044,-10.35519 15.10487,-9.06247 22.941641,-14.32895 27.714336,-3.85011 33.234488,1.26112 60.630412,-2.01047 z"
       sodipodi:nodetypes="scscscscs" />
    <path
       style="font-variation-settings:normal;opacity:1;fill:#87aade;fill-opacity:0.85098;stroke:#87aade;stroke-width:1.5;stroke-linecap:round;stroke-linejoin:round;stroke-miterlimit:4;stroke-dasharray:none;stroke-dashoffset:0;stroke-opacity:0.85098;marker-end:url(#Arrow2);stop-color:#000000;stop-opacity:1"
       d="M 62.482615,198.16012 V 164.79855"
       id="path15370" />
    <path
       style="font-variation-settings:normal;opacity:1;fill:#ffb380;fill-opacity:0.85098;stroke:#ffb380;stroke-width:1.5;stroke-linecap:round;stroke-linejoin:round;stroke-miterlimit:4;stroke-dasharray:none;stroke-dashoffset:0;stroke-opacity:0.85098;marker-end:url(#Arrow2);stop-color:#000000;stop-opacity:1"
       d="M 62.482615,198.47662 99.185394,171.3121"
       id="path15372"
       sodipodi:nodetypes="cc" />
    <path
       style="fill:#000000;fill-opacity:0.85098;stroke:#000000;stroke-width:1.5;stroke-linecap:round;stroke-linejoin:round;stroke-dasharray:none;marker-end:url(#Arrow2);stop-color:#000000"
       d="m 63.316656,198.47662 36.280707,6.2553"
       id="path15374" />
    <path
       style="fill:none;fill-opacity:0.85098;stroke:#999999;stroke-width:1;stroke-linecap:round;stroke-linejoin:round;stroke-dasharray:1, 6;stroke-dashoffset:0;stop-color:#000000"
       d="M 107.88355,203.10255 V 164.27742 L 65.018804,156.87147"
       id="path15642" />
    <circle
       id="path15368"
       style="fill:#000000;stroke:none;stroke-width:0.374919"
       cx="62.691124"
       cy="198.36859"
       r="2.1255295" />
    <g
       transform="matrix(1.4821836,0,0,1.4821836,46.978008,158.45538)"
       ns113:version="1.8.2"
       ns113:texconverter="pdflatex"
       ns113:pdfconverter="inkscape"
       ns113:text="$C$"
       ns113:preamble="/Users/jvkersch/Library/Application Support/org.inkscape.Inkscape/config/inkscape/extensions/textext/default_packages.tex"
       ns113:scale="2.709779906395756"
       ns113:alignment="middle center"
       ns113:stroke-to-path="0"
       ns113:jacobian_sqrt="0.955951"
       id="g22284"
       style="font-variation-settings:normal;opacity:1;vector-effect:none;fill:#87aade;fill-opacity:0.85098;stroke:none;stroke-width:0.523038;stroke-linecap:round;stroke-linejoin:round;stroke-miterlimit:4;stroke-dasharray:none;stroke-dashoffset:0;stroke-opacity:1;-inkscape-stroke:none;stop-color:#000000;stop-opacity:1">
      <defs
         id="id-6e7e015b-363a-4acc-8738-7413e27eb3ba">
        <g
           id="id-aa5dbd7c-b79b-4031-8a30-0d3465c5c651">
          <g
             id="id-543e1cd8-4e3c-4618-b0b2-47b22887e2f3" />
          <g
             id="id-abf736b6-8aaa-4352-8bf2-cf2b357c0980">
            <path
               d="m 7.578125,-6.921875 c 0,-0.03125 -0.015625,-0.109375 -0.109375,-0.109375 -0.03125,0 -0.046875,0.015625 -0.15625,0.125 L 6.625,-6.140625 C 6.53125,-6.28125 6.078125,-7.03125 4.96875,-7.03125 2.734375,-7.03125 0.5,-4.828125 0.5,-2.515625 0.5,-0.875 1.671875,0.21875 3.203125,0.21875 c 0.859375,0 1.625,-0.390625 2.15625,-0.859375 0.921875,-0.8125 1.09375,-1.71875 1.09375,-1.75 C 6.453125,-2.5 6.34375,-2.5 6.328125,-2.5 c -0.0625,0 -0.109375,0.03125 -0.125,0.109375 -0.09375,0.28125 -0.328125,1 -1.015625,1.578125 -0.6875,0.546875 -1.3125,0.71875 -1.828125,0.71875 -0.890625,0 -1.953125,-0.515625 -1.953125,-2.0625 0,-0.578125 0.203125,-2.1875 1.203125,-3.359375 0.609375,-0.703125 1.546875,-1.203125 2.4375,-1.203125 1.015625,0 1.609375,0.765625 1.609375,1.921875 0,0.40625 -0.03125,0.40625 -0.03125,0.515625 0,0.09375 0.109375,0.09375 0.140625,0.09375 0.125,0 0.125,-0.015625 0.1875,-0.203125 z m 0,0"
               id="id-089077f6-460a-42a7-954e-e54ee63d2190" />
          </g>
        </g>
      </defs>
      <g
         fill="#000000"
         fill-opacity="1"
         id="id-a8afdf13-6736-4064-86db-2d47e64d08a9"
         transform="translate(-149.212,-127.734)"
         style="font-variation-settings:normal;vector-effect:none;fill:#87aade;fill-opacity:0.85098;stroke:none;stroke-width:0.523038;stroke-linecap:round;stroke-linejoin:round;stroke-miterlimit:4;stroke-dasharray:none;stroke-dashoffset:0;stroke-opacity:1;-inkscape-stroke:none;stop-color:#000000;stop-opacity:1">
        <g
           transform="translate(148.712,134.765)"
           id="g22281"
           style="font-variation-settings:normal;vector-effect:none;fill:#87aade;fill-opacity:0.85098;stroke:none;stroke-width:0.523038;stroke-linecap:round;stroke-linejoin:round;stroke-miterlimit:4;stroke-dasharray:none;stroke-dashoffset:0;stroke-opacity:1;-inkscape-stroke:none;stop-color:#000000;stop-opacity:1">
          <path
             d="m 7.578125,-6.921875 c 0,-0.03125 -0.015625,-0.109375 -0.109375,-0.109375 -0.03125,0 -0.046875,0.015625 -0.15625,0.125 L 6.625,-6.140625 C 6.53125,-6.28125 6.078125,-7.03125 4.96875,-7.03125 2.734375,-7.03125 0.5,-4.828125 0.5,-2.515625 0.5,-0.875 1.671875,0.21875 3.203125,0.21875 c 0.859375,0 1.625,-0.390625 2.15625,-0.859375 0.921875,-0.8125 1.09375,-1.71875 1.09375,-1.75 C 6.453125,-2.5 6.34375,-2.5 6.328125,-2.5 c -0.0625,0 -0.109375,0.03125 -0.125,0.109375 -0.09375,0.28125 -0.328125,1 -1.015625,1.578125 -0.6875,0.546875 -1.3125,0.71875 -1.828125,0.71875 -0.890625,0 -1.953125,-0.515625 -1.953125,-2.0625 0,-0.578125 0.203125,-2.1875 1.203125,-3.359375 0.609375,-0.703125 1.546875,-1.203125 2.4375,-1.203125 1.015625,0 1.609375,0.765625 1.609375,1.921875 0,0.40625 -0.03125,0.40625 -0.03125,0.515625 0,0.09375 0.109375,0.09375 0.140625,0.09375 0.125,0 0.125,-0.015625 0.1875,-0.203125 z m 0,0"
             id="id-e9eecc60-fba9-4abb-b31f-7ecce4b29d4e"
             style="font-variation-settings:normal;vector-effect:none;fill:#87aade;fill-opacity:0.85098;stroke:none;stroke-width:0.523038;stroke-linecap:round;stroke-linejoin:round;stroke-miterlimit:4;stroke-dasharray:none;stroke-dashoffset:0;stroke-opacity:1;-inkscape-stroke:none;stop-color:#000000;stop-opacity:1" />
        </g>
      </g>
    </g>
    <g
       transform="matrix(1.3688336,0,0,1.3688336,108.78754,164.68313)"
       ns113:version="1.8.2"
       ns113:texconverter="pdflatex"
       ns113:pdfconverter="inkscape"
       ns113:text="$X_H$"
       ns113:preamble="/Users/jvkersch/Library/Application Support/org.inkscape.Inkscape/config/inkscape/extensions/textext/default_packages.tex"
       ns113:scale="2.709779906395756"
       ns113:alignment="middle center"
       ns113:stroke-to-path="0"
       ns113:jacobian_sqrt="0.955951"
       id="g23198"
       style="font-variation-settings:normal;opacity:1;vector-effect:none;fill:#ffb380;fill-opacity:0.85098;stroke:none;stroke-width:0.582793;stroke-linecap:round;stroke-linejoin:round;stroke-miterlimit:4;stroke-dasharray:none;stroke-dashoffset:0;stroke-opacity:1;-inkscape-stroke:none;stop-color:#000000;stop-opacity:1">
      <defs
         id="id-2c640d9d-d9c0-42e0-a757-0f0fb6f96af0">
        <g
           id="id-9b43b079-96af-41ef-ba57-1e6e76d08aeb">
          <g
             id="id-cd72cb0f-dec5-4391-bc63-82baf41a5d24" />
          <g
             id="id-528cf58e-a47e-47f6-a1c1-e898632efa36">
            <path
               d="M 4.828125,-4.09375 4,-6.078125 c -0.03125,-0.078125 -0.046875,-0.125 -0.046875,-0.125 0,-0.0625 0.15625,-0.25 0.578125,-0.296875 0.109375,-0.015625 0.203125,-0.015625 0.203125,-0.1875 0,-0.125 -0.125,-0.125 -0.15625,-0.125 -0.40625,0 -0.828125,0.03125 -1.25,0.03125 -0.25,0 -0.859375,-0.03125 -1.109375,-0.03125 -0.0625,0 -0.1875,0 -0.1875,0.203125 C 2.03125,-6.5 2.140625,-6.5 2.265625,-6.5 c 0.59375,0 0.65625,0.09375 0.75,0.3125 l 1.171875,2.78125 -2.109375,2.265625 -0.125,0.109375 C 1.46875,-0.5 1,-0.34375 0.484375,-0.3125 c -0.125,0.015625 -0.21875,0.015625 -0.21875,0.203125 0,0.015625 0,0.109375 0.140625,0.109375 0.296875,0 0.625,-0.03125 0.921875,-0.03125 C 1.703125,-0.03125 2.09375,0 2.453125,0 2.515625,0 2.625,0 2.625,-0.203125 2.625,-0.296875 2.53125,-0.3125 2.515625,-0.3125 c -0.09375,0 -0.40625,-0.03125 -0.40625,-0.3125 0,-0.15625 0.15625,-0.3125 0.265625,-0.4375 L 3.40625,-2.140625 4.296875,-3.125 l 1,2.390625 c 0.046875,0.109375 0.0625,0.109375 0.0625,0.140625 0,0.078125 -0.203125,0.25 -0.578125,0.28125 C 4.671875,-0.296875 4.578125,-0.296875 4.578125,-0.125 4.578125,0 4.6875,0 4.71875,0 5,0 5.703125,-0.03125 5.984375,-0.03125 6.234375,-0.03125 6.84375,0 7.09375,0 c 0.0625,0 0.1875,0 0.1875,-0.1875 0,-0.125 -0.109375,-0.125 -0.1875,-0.125 -0.65625,0 -0.6875,-0.03125 -0.859375,-0.4375 C 5.859375,-1.671875 5.1875,-3.234375 4.953125,-3.828125 5.625,-4.53125 6.671875,-5.71875 7,-5.984375 7.28125,-6.234375 7.671875,-6.46875 8.265625,-6.5 c 0.125,-0.015625 0.21875,-0.015625 0.21875,-0.203125 0,0 0,-0.109375 -0.125,-0.109375 -0.296875,0 -0.640625,0.03125 -0.9375,0.03125 -0.375,0 -0.75,-0.03125 -1.109375,-0.03125 -0.0625,0 -0.1875,0 -0.1875,0.203125 0,0.0625 0.046875,0.09375 0.109375,0.109375 0.09375,0.015625 0.40625,0.03125 0.40625,0.3125 0,0.140625 -0.109375,0.265625 -0.1875,0.359375 z m 0,0"
               id="id-78a444b5-3232-4d77-bc49-d4b253ad6059" />
          </g>
          <g
             id="id-1d77cd67-66a5-4ecd-a2b7-dffb86d83728" />
          <g
             id="id-8856c17e-c9e4-4da8-ae61-fddc7f9e3a50">
            <path
               d="m 5.859375,-4.1875 c 0.0625,-0.265625 0.078125,-0.328125 0.59375,-0.328125 0.15625,0 0.234375,0 0.234375,-0.140625 0,-0.03125 -0.015625,-0.109375 -0.109375,-0.109375 -0.203125,0 -0.703125,0.03125 -0.90625,0.03125 -0.125,0 -0.375,0 -0.484375,0 C 5.046875,-4.75 4.875,-4.765625 4.75,-4.765625 c -0.046875,0 -0.15625,0 -0.15625,0.15625 0,0.09375 0.09375,0.09375 0.234375,0.09375 0,0 0.140625,0 0.265625,0.015625 0.140625,0.015625 0.15625,0.03125 0.15625,0.109375 0,0 0,0.046875 -0.03125,0.140625 L 4.8125,-2.59375 H 2.46875 l 0.40625,-1.625 c 0.0625,-0.234375 0.078125,-0.296875 0.609375,-0.296875 0.125,0 0.21875,0 0.21875,-0.140625 0,-0.03125 -0.03125,-0.109375 -0.109375,-0.109375 -0.203125,0 -0.71875,0.03125 -0.921875,0.03125 -0.109375,0 -0.359375,0 -0.484375,0 C 2.0625,-4.75 1.890625,-4.765625 1.75,-4.765625 c -0.03125,0 -0.140625,0 -0.140625,0.15625 0,0.09375 0.078125,0.09375 0.21875,0.09375 0.015625,0 0.140625,0 0.265625,0.015625 0.15625,0.015625 0.171875,0.03125 0.171875,0.109375 0,0 0,0.046875 -0.03125,0.140625 l -0.9375,3.703125 C 1.25,-0.3125 1.234375,-0.25 0.6875,-0.25 c -0.109375,0 -0.203125,0 -0.203125,0.140625 C 0.484375,-0.03125 0.53125,0 0.59375,0 0.796875,0 1.296875,-0.03125 1.5,-0.03125 c 0.109375,0 0.359375,0 0.484375,0.015625 C 2.125,-0.015625 2.296875,0 2.421875,0 2.453125,0 2.578125,0 2.578125,-0.140625 2.578125,-0.25 2.5,-0.25 2.34375,-0.25 c -0.109375,0 -0.140625,0 -0.265625,-0.015625 -0.15625,-0.015625 -0.15625,-0.03125 -0.15625,-0.109375 0,0 0,-0.046875 0.03125,-0.140625 L 2.40625,-2.34375 H 4.75 L 4.296875,-0.546875 C 4.234375,-0.3125 4.21875,-0.25 3.671875,-0.25 3.5625,-0.25 3.46875,-0.25 3.46875,-0.109375 3.46875,-0.03125 3.515625,0 3.578125,0 3.78125,0 4.28125,-0.03125 4.484375,-0.03125 c 0.125,0 0.359375,0 0.484375,0.015625 C 5.109375,-0.015625 5.28125,0 5.421875,0 5.453125,0 5.5625,0 5.5625,-0.140625 5.5625,-0.25 5.484375,-0.25 5.328125,-0.25 5.21875,-0.25 5.1875,-0.25 5.0625,-0.265625 4.90625,-0.28125 4.90625,-0.296875 4.90625,-0.375 c 0,-0.03125 0.03125,-0.109375 0.03125,-0.140625 z m 0,0"
               id="id-4b5426d0-170f-4ae0-bdd9-c2c3f877f012" />
          </g>
        </g>
      </defs>
      <g
         fill="#000000"
         fill-opacity="1"
         id="id-ea7e6f41-3304-4be2-9301-23160ef4f3f1"
         transform="translate(-148.978,-127.953)"
         style="font-variation-settings:normal;vector-effect:none;fill:#ffb380;fill-opacity:0.85098;stroke:none;stroke-width:0.582793;stroke-linecap:round;stroke-linejoin:round;stroke-miterlimit:4;stroke-dasharray:none;stroke-dashoffset:0;stroke-opacity:1;-inkscape-stroke:none;stop-color:#000000;stop-opacity:1">
        <g
           transform="translate(148.712,134.765)"
           id="g23191"
           style="font-variation-settings:normal;vector-effect:none;fill:#ffb380;fill-opacity:0.85098;stroke:none;stroke-width:0.582793;stroke-linecap:round;stroke-linejoin:round;stroke-miterlimit:4;stroke-dasharray:none;stroke-dashoffset:0;stroke-opacity:1;-inkscape-stroke:none;stop-color:#000000;stop-opacity:1">
          <path
             d="M 4.828125,-4.09375 4,-6.078125 c -0.03125,-0.078125 -0.046875,-0.125 -0.046875,-0.125 0,-0.0625 0.15625,-0.25 0.578125,-0.296875 0.109375,-0.015625 0.203125,-0.015625 0.203125,-0.1875 0,-0.125 -0.125,-0.125 -0.15625,-0.125 -0.40625,0 -0.828125,0.03125 -1.25,0.03125 -0.25,0 -0.859375,-0.03125 -1.109375,-0.03125 -0.0625,0 -0.1875,0 -0.1875,0.203125 C 2.03125,-6.5 2.140625,-6.5 2.265625,-6.5 c 0.59375,0 0.65625,0.09375 0.75,0.3125 l 1.171875,2.78125 -2.109375,2.265625 -0.125,0.109375 C 1.46875,-0.5 1,-0.34375 0.484375,-0.3125 c -0.125,0.015625 -0.21875,0.015625 -0.21875,0.203125 0,0.015625 0,0.109375 0.140625,0.109375 0.296875,0 0.625,-0.03125 0.921875,-0.03125 C 1.703125,-0.03125 2.09375,0 2.453125,0 2.515625,0 2.625,0 2.625,-0.203125 2.625,-0.296875 2.53125,-0.3125 2.515625,-0.3125 c -0.09375,0 -0.40625,-0.03125 -0.40625,-0.3125 0,-0.15625 0.15625,-0.3125 0.265625,-0.4375 L 3.40625,-2.140625 4.296875,-3.125 l 1,2.390625 c 0.046875,0.109375 0.0625,0.109375 0.0625,0.140625 0,0.078125 -0.203125,0.25 -0.578125,0.28125 C 4.671875,-0.296875 4.578125,-0.296875 4.578125,-0.125 4.578125,0 4.6875,0 4.71875,0 5,0 5.703125,-0.03125 5.984375,-0.03125 6.234375,-0.03125 6.84375,0 7.09375,0 c 0.0625,0 0.1875,0 0.1875,-0.1875 0,-0.125 -0.109375,-0.125 -0.1875,-0.125 -0.65625,0 -0.6875,-0.03125 -0.859375,-0.4375 C 5.859375,-1.671875 5.1875,-3.234375 4.953125,-3.828125 5.625,-4.53125 6.671875,-5.71875 7,-5.984375 7.28125,-6.234375 7.671875,-6.46875 8.265625,-6.5 c 0.125,-0.015625 0.21875,-0.015625 0.21875,-0.203125 0,0 0,-0.109375 -0.125,-0.109375 -0.296875,0 -0.640625,0.03125 -0.9375,0.03125 -0.375,0 -0.75,-0.03125 -1.109375,-0.03125 -0.0625,0 -0.1875,0 -0.1875,0.203125 0,0.0625 0.046875,0.09375 0.109375,0.109375 0.09375,0.015625 0.40625,0.03125 0.40625,0.3125 0,0.140625 -0.109375,0.265625 -0.1875,0.359375 z m 0,0"
             id="id-f67caa07-7d39-4025-8b45-b85d22c7d436"
             style="font-variation-settings:normal;vector-effect:none;fill:#ffb380;fill-opacity:0.85098;stroke:none;stroke-width:0.582793;stroke-linecap:round;stroke-linejoin:round;stroke-miterlimit:4;stroke-dasharray:none;stroke-dashoffset:0;stroke-opacity:1;-inkscape-stroke:none;stop-color:#000000;stop-opacity:1" />
        </g>
      </g>
      <g
         fill="#000000"
         fill-opacity="1"
         id="id-2400e57a-e5be-4746-875d-dfbcc5f75839"
         transform="translate(-148.978,-127.953)"
         style="font-variation-settings:normal;vector-effect:none;fill:#ffb380;fill-opacity:0.85098;stroke:none;stroke-width:0.582793;stroke-linecap:round;stroke-linejoin:round;stroke-miterlimit:4;stroke-dasharray:none;stroke-dashoffset:0;stroke-opacity:1;-inkscape-stroke:none;stop-color:#000000;stop-opacity:1">
        <g
           transform="translate(156.966,136.259)"
           id="g23195"
           style="font-variation-settings:normal;vector-effect:none;fill:#ffb380;fill-opacity:0.85098;stroke:none;stroke-width:0.582793;stroke-linecap:round;stroke-linejoin:round;stroke-miterlimit:4;stroke-dasharray:none;stroke-dashoffset:0;stroke-opacity:1;-inkscape-stroke:none;stop-color:#000000;stop-opacity:1">
          <path
             d="m 5.859375,-4.1875 c 0.0625,-0.265625 0.078125,-0.328125 0.59375,-0.328125 0.15625,0 0.234375,0 0.234375,-0.140625 0,-0.03125 -0.015625,-0.109375 -0.109375,-0.109375 -0.203125,0 -0.703125,0.03125 -0.90625,0.03125 -0.125,0 -0.375,0 -0.484375,0 C 5.046875,-4.75 4.875,-4.765625 4.75,-4.765625 c -0.046875,0 -0.15625,0 -0.15625,0.15625 0,0.09375 0.09375,0.09375 0.234375,0.09375 0,0 0.140625,0 0.265625,0.015625 0.140625,0.015625 0.15625,0.03125 0.15625,0.109375 0,0 0,0.046875 -0.03125,0.140625 L 4.8125,-2.59375 H 2.46875 l 0.40625,-1.625 c 0.0625,-0.234375 0.078125,-0.296875 0.609375,-0.296875 0.125,0 0.21875,0 0.21875,-0.140625 0,-0.03125 -0.03125,-0.109375 -0.109375,-0.109375 -0.203125,0 -0.71875,0.03125 -0.921875,0.03125 -0.109375,0 -0.359375,0 -0.484375,0 C 2.0625,-4.75 1.890625,-4.765625 1.75,-4.765625 c -0.03125,0 -0.140625,0 -0.140625,0.15625 0,0.09375 0.078125,0.09375 0.21875,0.09375 0.015625,0 0.140625,0 0.265625,0.015625 0.15625,0.015625 0.171875,0.03125 0.171875,0.109375 0,0 0,0.046875 -0.03125,0.140625 l -0.9375,3.703125 C 1.25,-0.3125 1.234375,-0.25 0.6875,-0.25 c -0.109375,0 -0.203125,0 -0.203125,0.140625 C 0.484375,-0.03125 0.53125,0 0.59375,0 0.796875,0 1.296875,-0.03125 1.5,-0.03125 c 0.109375,0 0.359375,0 0.484375,0.015625 C 2.125,-0.015625 2.296875,0 2.421875,0 2.453125,0 2.578125,0 2.578125,-0.140625 2.578125,-0.25 2.5,-0.25 2.34375,-0.25 c -0.109375,0 -0.140625,0 -0.265625,-0.015625 -0.15625,-0.015625 -0.15625,-0.03125 -0.15625,-0.109375 0,0 0,-0.046875 0.03125,-0.140625 L 2.40625,-2.34375 H 4.75 L 4.296875,-0.546875 C 4.234375,-0.3125 4.21875,-0.25 3.671875,-0.25 3.5625,-0.25 3.46875,-0.25 3.46875,-0.109375 3.46875,-0.03125 3.515625,0 3.578125,0 3.78125,0 4.28125,-0.03125 4.484375,-0.03125 c 0.125,0 0.359375,0 0.484375,0.015625 C 5.109375,-0.015625 5.28125,0 5.421875,0 5.453125,0 5.5625,0 5.5625,-0.140625 5.5625,-0.25 5.484375,-0.25 5.328125,-0.25 5.21875,-0.25 5.1875,-0.25 5.0625,-0.265625 4.90625,-0.28125 4.90625,-0.296875 4.90625,-0.375 c 0,-0.03125 0.03125,-0.109375 0.03125,-0.140625 z m 0,0"
             id="id-b8f6027d-8e12-40ad-9bac-71ee5e0b3a59"
             style="font-variation-settings:normal;vector-effect:none;fill:#ffb380;fill-opacity:0.85098;stroke:none;stroke-width:0.582793;stroke-linecap:round;stroke-linejoin:round;stroke-miterlimit:4;stroke-dasharray:none;stroke-dashoffset:0;stroke-opacity:1;-inkscape-stroke:none;stop-color:#000000;stop-opacity:1" />
        </g>
      </g>
    </g>
    <g
       transform="matrix(1.2541855,0.22287546,-0.22287546,1.2541855,55.566565,202.02292)"
       ns113:version="1.8.2"
       ns113:texconverter="pdflatex"
       ns113:pdfconverter="inkscape"
       ns113:text="$X_H - C$"
       ns113:preamble="/Users/jvkersch/Library/Application Support/org.inkscape.Inkscape/config/inkscape/extensions/textext/default_packages.tex"
       ns113:scale="2.709779906395756"
       ns113:alignment="middle center"
       ns113:stroke-to-path="0"
       ns113:jacobian_sqrt="0.955951"
       id="g24155">
      <defs
         id="id-faa2e4f0-7cad-4e7e-a21d-1b2c278ca430">
        <g
           id="id-37d0a419-3ed6-401a-8121-44434209818e">
          <g
             id="id-c2cbf640-c651-4b47-935a-8eced5e528f2" />
          <g
             id="id-dc03958a-8aa4-4c81-aa8d-e82614128d70">
            <path
               d="M 4.828125,-4.09375 4,-6.078125 c -0.03125,-0.078125 -0.046875,-0.125 -0.046875,-0.125 0,-0.0625 0.15625,-0.25 0.578125,-0.296875 0.109375,-0.015625 0.203125,-0.015625 0.203125,-0.1875 0,-0.125 -0.125,-0.125 -0.15625,-0.125 -0.40625,0 -0.828125,0.03125 -1.25,0.03125 -0.25,0 -0.859375,-0.03125 -1.109375,-0.03125 -0.0625,0 -0.1875,0 -0.1875,0.203125 C 2.03125,-6.5 2.140625,-6.5 2.265625,-6.5 c 0.59375,0 0.65625,0.09375 0.75,0.3125 l 1.171875,2.78125 -2.109375,2.265625 -0.125,0.109375 C 1.46875,-0.5 1,-0.34375 0.484375,-0.3125 c -0.125,0.015625 -0.21875,0.015625 -0.21875,0.203125 0,0.015625 0,0.109375 0.140625,0.109375 0.296875,0 0.625,-0.03125 0.921875,-0.03125 C 1.703125,-0.03125 2.09375,0 2.453125,0 2.515625,0 2.625,0 2.625,-0.203125 2.625,-0.296875 2.53125,-0.3125 2.515625,-0.3125 c -0.09375,0 -0.40625,-0.03125 -0.40625,-0.3125 0,-0.15625 0.15625,-0.3125 0.265625,-0.4375 L 3.40625,-2.140625 4.296875,-3.125 l 1,2.390625 c 0.046875,0.109375 0.0625,0.109375 0.0625,0.140625 0,0.078125 -0.203125,0.25 -0.578125,0.28125 C 4.671875,-0.296875 4.578125,-0.296875 4.578125,-0.125 4.578125,0 4.6875,0 4.71875,0 5,0 5.703125,-0.03125 5.984375,-0.03125 6.234375,-0.03125 6.84375,0 7.09375,0 c 0.0625,0 0.1875,0 0.1875,-0.1875 0,-0.125 -0.109375,-0.125 -0.1875,-0.125 -0.65625,0 -0.6875,-0.03125 -0.859375,-0.4375 C 5.859375,-1.671875 5.1875,-3.234375 4.953125,-3.828125 5.625,-4.53125 6.671875,-5.71875 7,-5.984375 7.28125,-6.234375 7.671875,-6.46875 8.265625,-6.5 c 0.125,-0.015625 0.21875,-0.015625 0.21875,-0.203125 0,0 0,-0.109375 -0.125,-0.109375 -0.296875,0 -0.640625,0.03125 -0.9375,0.03125 -0.375,0 -0.75,-0.03125 -1.109375,-0.03125 -0.0625,0 -0.1875,0 -0.1875,0.203125 0,0.0625 0.046875,0.09375 0.109375,0.109375 0.09375,0.015625 0.40625,0.03125 0.40625,0.3125 0,0.140625 -0.109375,0.265625 -0.1875,0.359375 z m 0,0"
               id="id-4b19af10-5bff-4218-823a-014f6b3a043d" />
          </g>
          <g
             id="id-6c8c88fc-a81b-4e5f-a417-cfe7d807e7d8">
            <path
               d="m 7.578125,-6.921875 c 0,-0.03125 -0.015625,-0.109375 -0.109375,-0.109375 -0.03125,0 -0.046875,0.015625 -0.15625,0.125 L 6.625,-6.140625 C 6.53125,-6.28125 6.078125,-7.03125 4.96875,-7.03125 2.734375,-7.03125 0.5,-4.828125 0.5,-2.515625 0.5,-0.875 1.671875,0.21875 3.203125,0.21875 c 0.859375,0 1.625,-0.390625 2.15625,-0.859375 0.921875,-0.8125 1.09375,-1.71875 1.09375,-1.75 C 6.453125,-2.5 6.34375,-2.5 6.328125,-2.5 c -0.0625,0 -0.109375,0.03125 -0.125,0.109375 -0.09375,0.28125 -0.328125,1 -1.015625,1.578125 -0.6875,0.546875 -1.3125,0.71875 -1.828125,0.71875 -0.890625,0 -1.953125,-0.515625 -1.953125,-2.0625 0,-0.578125 0.203125,-2.1875 1.203125,-3.359375 0.609375,-0.703125 1.546875,-1.203125 2.4375,-1.203125 1.015625,0 1.609375,0.765625 1.609375,1.921875 0,0.40625 -0.03125,0.40625 -0.03125,0.515625 0,0.09375 0.109375,0.09375 0.140625,0.09375 0.125,0 0.125,-0.015625 0.1875,-0.203125 z m 0,0"
               id="id-e8bc1f29-8ef3-4ddc-b0c3-7a1efbc3b618" />
          </g>
          <g
             id="id-f7d84b21-b171-4a84-bf05-e30c9b3937a4" />
          <g
             id="id-cba52fe1-ce28-46ac-a03c-c836510cc043">
            <path
               d="m 5.859375,-4.1875 c 0.0625,-0.265625 0.078125,-0.328125 0.59375,-0.328125 0.15625,0 0.234375,0 0.234375,-0.140625 0,-0.03125 -0.015625,-0.109375 -0.109375,-0.109375 -0.203125,0 -0.703125,0.03125 -0.90625,0.03125 -0.125,0 -0.375,0 -0.484375,0 C 5.046875,-4.75 4.875,-4.765625 4.75,-4.765625 c -0.046875,0 -0.15625,0 -0.15625,0.15625 0,0.09375 0.09375,0.09375 0.234375,0.09375 0,0 0.140625,0 0.265625,0.015625 0.140625,0.015625 0.15625,0.03125 0.15625,0.109375 0,0 0,0.046875 -0.03125,0.140625 L 4.8125,-2.59375 H 2.46875 l 0.40625,-1.625 c 0.0625,-0.234375 0.078125,-0.296875 0.609375,-0.296875 0.125,0 0.21875,0 0.21875,-0.140625 0,-0.03125 -0.03125,-0.109375 -0.109375,-0.109375 -0.203125,0 -0.71875,0.03125 -0.921875,0.03125 -0.109375,0 -0.359375,0 -0.484375,0 C 2.0625,-4.75 1.890625,-4.765625 1.75,-4.765625 c -0.03125,0 -0.140625,0 -0.140625,0.15625 0,0.09375 0.078125,0.09375 0.21875,0.09375 0.015625,0 0.140625,0 0.265625,0.015625 0.15625,0.015625 0.171875,0.03125 0.171875,0.109375 0,0 0,0.046875 -0.03125,0.140625 l -0.9375,3.703125 C 1.25,-0.3125 1.234375,-0.25 0.6875,-0.25 c -0.109375,0 -0.203125,0 -0.203125,0.140625 C 0.484375,-0.03125 0.53125,0 0.59375,0 0.796875,0 1.296875,-0.03125 1.5,-0.03125 c 0.109375,0 0.359375,0 0.484375,0.015625 C 2.125,-0.015625 2.296875,0 2.421875,0 2.453125,0 2.578125,0 2.578125,-0.140625 2.578125,-0.25 2.5,-0.25 2.34375,-0.25 c -0.109375,0 -0.140625,0 -0.265625,-0.015625 -0.15625,-0.015625 -0.15625,-0.03125 -0.15625,-0.109375 0,0 0,-0.046875 0.03125,-0.140625 L 2.40625,-2.34375 H 4.75 L 4.296875,-0.546875 C 4.234375,-0.3125 4.21875,-0.25 3.671875,-0.25 3.5625,-0.25 3.46875,-0.25 3.46875,-0.109375 3.46875,-0.03125 3.515625,0 3.578125,0 3.78125,0 4.28125,-0.03125 4.484375,-0.03125 c 0.125,0 0.359375,0 0.484375,0.015625 C 5.109375,-0.015625 5.28125,0 5.421875,0 5.453125,0 5.5625,0 5.5625,-0.140625 5.5625,-0.25 5.484375,-0.25 5.328125,-0.25 5.21875,-0.25 5.1875,-0.25 5.0625,-0.265625 4.90625,-0.28125 4.90625,-0.296875 4.90625,-0.375 c 0,-0.03125 0.03125,-0.109375 0.03125,-0.140625 z m 0,0"
               id="id-9add4490-543c-4792-9a97-557d30f41fdf" />
          </g>
          <g
             id="id-91dab911-487c-44e0-b091-002eed2cd713" />
          <g
             id="id-2c0a9c0d-4177-4ba8-8d88-22c453f95506">
            <path
               d="m 6.5625,-2.296875 c 0.171875,0 0.359375,0 0.359375,-0.203125 0,-0.1875 -0.1875,-0.1875 -0.359375,-0.1875 H 1.171875 c -0.171875,0 -0.34375,0 -0.34375,0.1875 0,0.203125 0.171875,0.203125 0.34375,0.203125 z m 0,0"
               id="id-d2ef288c-edfa-4676-9701-8f4029df9cd3" />
          </g>
        </g>
      </defs>
      <g
         fill="#000000"
         fill-opacity="1"
         id="id-4fe13fd8-f0df-450b-95a5-4b9f8e782051"
         transform="translate(-148.978,-127.734)">
        <g
           transform="translate(148.712,134.765)"
           id="g24140">
          <path
             d="M 4.828125,-4.09375 4,-6.078125 c -0.03125,-0.078125 -0.046875,-0.125 -0.046875,-0.125 0,-0.0625 0.15625,-0.25 0.578125,-0.296875 0.109375,-0.015625 0.203125,-0.015625 0.203125,-0.1875 0,-0.125 -0.125,-0.125 -0.15625,-0.125 -0.40625,0 -0.828125,0.03125 -1.25,0.03125 -0.25,0 -0.859375,-0.03125 -1.109375,-0.03125 -0.0625,0 -0.1875,0 -0.1875,0.203125 C 2.03125,-6.5 2.140625,-6.5 2.265625,-6.5 c 0.59375,0 0.65625,0.09375 0.75,0.3125 l 1.171875,2.78125 -2.109375,2.265625 -0.125,0.109375 C 1.46875,-0.5 1,-0.34375 0.484375,-0.3125 c -0.125,0.015625 -0.21875,0.015625 -0.21875,0.203125 0,0.015625 0,0.109375 0.140625,0.109375 0.296875,0 0.625,-0.03125 0.921875,-0.03125 C 1.703125,-0.03125 2.09375,0 2.453125,0 2.515625,0 2.625,0 2.625,-0.203125 2.625,-0.296875 2.53125,-0.3125 2.515625,-0.3125 c -0.09375,0 -0.40625,-0.03125 -0.40625,-0.3125 0,-0.15625 0.15625,-0.3125 0.265625,-0.4375 L 3.40625,-2.140625 4.296875,-3.125 l 1,2.390625 c 0.046875,0.109375 0.0625,0.109375 0.0625,0.140625 0,0.078125 -0.203125,0.25 -0.578125,0.28125 C 4.671875,-0.296875 4.578125,-0.296875 4.578125,-0.125 4.578125,0 4.6875,0 4.71875,0 5,0 5.703125,-0.03125 5.984375,-0.03125 6.234375,-0.03125 6.84375,0 7.09375,0 c 0.0625,0 0.1875,0 0.1875,-0.1875 0,-0.125 -0.109375,-0.125 -0.1875,-0.125 -0.65625,0 -0.6875,-0.03125 -0.859375,-0.4375 C 5.859375,-1.671875 5.1875,-3.234375 4.953125,-3.828125 5.625,-4.53125 6.671875,-5.71875 7,-5.984375 7.28125,-6.234375 7.671875,-6.46875 8.265625,-6.5 c 0.125,-0.015625 0.21875,-0.015625 0.21875,-0.203125 0,0 0,-0.109375 -0.125,-0.109375 -0.296875,0 -0.640625,0.03125 -0.9375,0.03125 -0.375,0 -0.75,-0.03125 -1.109375,-0.03125 -0.0625,0 -0.1875,0 -0.1875,0.203125 0,0.0625 0.046875,0.09375 0.109375,0.109375 0.09375,0.015625 0.40625,0.03125 0.40625,0.3125 0,0.140625 -0.109375,0.265625 -0.1875,0.359375 z m 0,0"
             id="id-bfc3fd00-762c-4d5e-978a-4d0eda483e59" />
        </g>
      </g>
      <g
         fill="#000000"
         fill-opacity="1"
         id="id-80f5cd78-6ec6-4485-b4bd-1384bcbc5d9c"
         transform="translate(-148.978,-127.734)">
        <g
           transform="translate(156.966,136.259)"
           id="g24144">
          <path
             d="m 5.859375,-4.1875 c 0.0625,-0.265625 0.078125,-0.328125 0.59375,-0.328125 0.15625,0 0.234375,0 0.234375,-0.140625 0,-0.03125 -0.015625,-0.109375 -0.109375,-0.109375 -0.203125,0 -0.703125,0.03125 -0.90625,0.03125 -0.125,0 -0.375,0 -0.484375,0 C 5.046875,-4.75 4.875,-4.765625 4.75,-4.765625 c -0.046875,0 -0.15625,0 -0.15625,0.15625 0,0.09375 0.09375,0.09375 0.234375,0.09375 0,0 0.140625,0 0.265625,0.015625 0.140625,0.015625 0.15625,0.03125 0.15625,0.109375 0,0 0,0.046875 -0.03125,0.140625 L 4.8125,-2.59375 H 2.46875 l 0.40625,-1.625 c 0.0625,-0.234375 0.078125,-0.296875 0.609375,-0.296875 0.125,0 0.21875,0 0.21875,-0.140625 0,-0.03125 -0.03125,-0.109375 -0.109375,-0.109375 -0.203125,0 -0.71875,0.03125 -0.921875,0.03125 -0.109375,0 -0.359375,0 -0.484375,0 C 2.0625,-4.75 1.890625,-4.765625 1.75,-4.765625 c -0.03125,0 -0.140625,0 -0.140625,0.15625 0,0.09375 0.078125,0.09375 0.21875,0.09375 0.015625,0 0.140625,0 0.265625,0.015625 0.15625,0.015625 0.171875,0.03125 0.171875,0.109375 0,0 0,0.046875 -0.03125,0.140625 l -0.9375,3.703125 C 1.25,-0.3125 1.234375,-0.25 0.6875,-0.25 c -0.109375,0 -0.203125,0 -0.203125,0.140625 C 0.484375,-0.03125 0.53125,0 0.59375,0 0.796875,0 1.296875,-0.03125 1.5,-0.03125 c 0.109375,0 0.359375,0 0.484375,0.015625 C 2.125,-0.015625 2.296875,0 2.421875,0 2.453125,0 2.578125,0 2.578125,-0.140625 2.578125,-0.25 2.5,-0.25 2.34375,-0.25 c -0.109375,0 -0.140625,0 -0.265625,-0.015625 -0.15625,-0.015625 -0.15625,-0.03125 -0.15625,-0.109375 0,0 0,-0.046875 0.03125,-0.140625 L 2.40625,-2.34375 H 4.75 L 4.296875,-0.546875 C 4.234375,-0.3125 4.21875,-0.25 3.671875,-0.25 3.5625,-0.25 3.46875,-0.25 3.46875,-0.109375 3.46875,-0.03125 3.515625,0 3.578125,0 3.78125,0 4.28125,-0.03125 4.484375,-0.03125 c 0.125,0 0.359375,0 0.484375,0.015625 C 5.109375,-0.015625 5.28125,0 5.421875,0 5.453125,0 5.5625,0 5.5625,-0.140625 5.5625,-0.25 5.484375,-0.25 5.328125,-0.25 5.21875,-0.25 5.1875,-0.25 5.0625,-0.265625 4.90625,-0.28125 4.90625,-0.296875 4.90625,-0.375 c 0,-0.03125 0.03125,-0.109375 0.03125,-0.140625 z m 0,0"
             id="id-2f269021-c2ea-4212-9564-20a9669eaffa" />
        </g>
      </g>
      <g
         fill="#000000"
         fill-opacity="1"
         id="id-428b68a1-3de1-4884-a7bd-17071589108d"
         transform="translate(-148.978,-127.734)">
        <g
           transform="translate(166.736,134.765)"
           id="g24148">
          <path
             d="m 6.5625,-2.296875 c 0.171875,0 0.359375,0 0.359375,-0.203125 0,-0.1875 -0.1875,-0.1875 -0.359375,-0.1875 H 1.171875 c -0.171875,0 -0.34375,0 -0.34375,0.1875 0,0.203125 0.171875,0.203125 0.34375,0.203125 z m 0,0"
             id="id-2a901262-7361-4c75-bbe9-0598de93df22" />
        </g>
      </g>
      <g
         fill="#000000"
         fill-opacity="1"
         id="id-16954d7a-0ba9-444a-9c66-408d6836014a"
         transform="translate(-148.978,-127.734)">
        <g
           transform="translate(176.699,134.765)"
           id="g24152">
          <path
             d="m 7.578125,-6.921875 c 0,-0.03125 -0.015625,-0.109375 -0.109375,-0.109375 -0.03125,0 -0.046875,0.015625 -0.15625,0.125 L 6.625,-6.140625 C 6.53125,-6.28125 6.078125,-7.03125 4.96875,-7.03125 2.734375,-7.03125 0.5,-4.828125 0.5,-2.515625 0.5,-0.875 1.671875,0.21875 3.203125,0.21875 c 0.859375,0 1.625,-0.390625 2.15625,-0.859375 0.921875,-0.8125 1.09375,-1.71875 1.09375,-1.75 C 6.453125,-2.5 6.34375,-2.5 6.328125,-2.5 c -0.0625,0 -0.109375,0.03125 -0.125,0.109375 -0.09375,0.28125 -0.328125,1 -1.015625,1.578125 -0.6875,0.546875 -1.3125,0.71875 -1.828125,0.71875 -0.890625,0 -1.953125,-0.515625 -1.953125,-2.0625 0,-0.578125 0.203125,-2.1875 1.203125,-3.359375 0.609375,-0.703125 1.546875,-1.203125 2.4375,-1.203125 1.015625,0 1.609375,0.765625 1.609375,1.921875 0,0.40625 -0.03125,0.40625 -0.03125,0.515625 0,0.09375 0.109375,0.09375 0.140625,0.09375 0.125,0 0.125,-0.015625 0.1875,-0.203125 z m 0,0"
             id="id-cd396c10-d0a4-43a8-a40f-ef285f6dcafa" />
        </g>
      </g>
    </g>
  </g>
</svg>
